<?xml version="1.0" encoding="UTF-8"?>
<!DOCTYPE svg PUBLIC "-//W3C//DTD SVG 1.1//EN" "http://www.w3.org/Graphics/SVG/1.1/DTD/svg11.dtd">
<svg xmlns="http://www.w3.org/2000/svg" version="1.1" width="1327px" height="1392px" style="shape-rendering:geometricPrecision; text-rendering:geometricPrecision; image-rendering:optimizeQuality; fill-rule:evenodd; clip-rule:evenodd" xmlns:xlink="http://www.w3.org/1999/xlink">
<g><path style="opacity:1" fill="#e3e3e5" d="M -0.5,-0.5 C 441.833,-0.5 884.167,-0.5 1326.5,-0.5C 1326.5,463.5 1326.5,927.5 1326.5,1391.5C 884.167,1391.5 441.833,1391.5 -0.5,1391.5C -0.5,927.5 -0.5,463.5 -0.5,-0.5 Z"/></g>
<g><path style="opacity:1" fill="#69666e" d="M 721.5,167.5 C 717.361,168.563 713.028,169.23 708.5,169.5C 712.545,167.823 716.878,167.156 721.5,167.5 Z"/></g>
<g><path style="opacity:1" fill="#0a040f" d="M 721.5,167.5 C 754.234,165.346 786.234,169.012 817.5,178.5C 821.94,180.538 826.607,182.204 831.5,183.5C 857.413,193.442 881.079,207.109 902.5,224.5C 906.534,228.536 910.868,232.202 915.5,235.5C 953.781,273.036 982.281,317.036 1001,367.5C 1014.05,403.158 1022.89,439.825 1027.5,477.5C 1027.28,482.1 1027.95,486.433 1029.5,490.5C 1032.56,529.117 1033.23,567.784 1031.5,606.5C 1030.29,617.001 1029.29,627.668 1028.5,638.5C 1028.5,639.167 1028.5,639.833 1028.5,640.5C 1026.55,650.99 1024.88,661.656 1023.5,672.5C 1023.5,673.167 1023.5,673.833 1023.5,674.5C 1021.3,688.136 1018.64,701.803 1015.5,715.5C 1010.79,735.245 1005.79,754.911 1000.5,774.5C 998.057,779.5 996.39,784.834 995.5,790.5C 965.281,882.956 919.447,966.622 858,1041.5C 811.553,1097.65 756.053,1142.15 691.5,1175C 681.593,1179.46 671.593,1183.62 661.5,1187.5C 659.033,1187.75 657.033,1188.75 655.5,1190.5C 644.744,1193.53 634.078,1196.53 623.5,1199.5C 618.908,1199.88 614.575,1200.88 610.5,1202.5C 577.66,1209.28 544.66,1210.12 511.5,1205C 506.241,1203.51 500.907,1202.35 495.5,1201.5C 488.14,1199.6 480.807,1197.27 473.5,1194.5C 466.148,1192.05 458.814,1189.38 451.5,1186.5C 449.967,1184.75 447.967,1183.75 445.5,1183.5C 416.19,1169.38 390.357,1150.38 368,1126.5C 336.025,1090.57 311.692,1049.91 295,1004.5C 289.695,988.938 284.862,973.271 280.5,957.5C 280.59,954.848 279.924,952.515 278.5,950.5C 278.634,948.708 278.301,947.042 277.5,945.5C 277.245,941.2 276.245,937.2 274.5,933.5C 265.957,885.562 262.29,837.228 263.5,788.5C 264.667,764.854 267,741.187 270.5,717.5C 288.48,593.329 332.98,479.995 404,377.5C 444.208,321.626 492.041,273.459 547.5,233C 573.697,214.898 601.697,199.898 631.5,188C 642.121,184.513 652.788,181.347 663.5,178.5C 672.772,176.806 681.772,174.473 690.5,171.5C 696.5,170.833 702.5,170.167 708.5,169.5C 713.028,169.23 717.361,168.563 721.5,167.5 Z"/></g>
<g><path style="opacity:1" fill="#38353d" d="M 690.5,171.5 C 681.772,174.473 672.772,176.806 663.5,178.5C 666.282,177.067 669.282,175.9 672.5,175C 678.58,174.146 684.58,172.979 690.5,171.5 Z"/></g>
<g><path style="opacity:1" fill="#747279" d="M 817.5,178.5 C 822.703,179.009 827.37,180.676 831.5,183.5C 826.607,182.204 821.94,180.538 817.5,178.5 Z"/></g>
<g><path style="opacity:1" fill="#e3e3e5" d="M 806.5,204.5 C 810.94,206.538 815.607,208.204 820.5,209.5C 869.607,229.085 908.773,261.085 938,305.5C 955.745,333.822 969.912,363.822 980.5,395.5C 980.41,398.152 981.076,400.485 982.5,402.5C 987.104,416.918 990.771,431.585 993.5,446.5C 993.41,449.152 994.076,451.485 995.5,453.5C 996.324,456.764 996.658,460.098 996.5,463.5C 996.793,472.161 998.126,480.494 1000.5,488.5C 1004.03,514.365 1005.37,540.365 1004.5,566.5C 1002.95,584.651 1001.95,602.984 1001.5,621.5C 996.795,670.647 987.462,718.98 973.5,766.5C 971.057,771.5 969.39,776.834 968.5,782.5C 965.44,790.012 962.774,797.678 960.5,805.5C 958.755,807.033 957.755,809.033 957.5,811.5C 949.629,832.899 940.962,853.899 931.5,874.5C 929.755,876.033 928.755,878.033 928.5,880.5C 893.277,953.045 846.61,1017.55 788.5,1074C 762.421,1098.08 734.088,1119.08 703.5,1137C 686.196,1146.15 668.529,1154.49 650.5,1162C 636.956,1166.35 623.289,1170.18 609.5,1173.5C 606.572,1173.57 603.905,1174.23 601.5,1175.5C 562.319,1182.52 523.652,1180.52 485.5,1169.5C 483.383,1167.35 480.716,1166.35 477.5,1166.5C 442.674,1153.19 412.507,1132.86 387,1105.5C 346.499,1058.38 319.499,1004.38 306,943.5C 302.077,926.959 298.91,910.292 296.5,893.5C 296.477,887.288 295.81,881.288 294.5,875.5C 291.531,845.857 290.864,816.191 292.5,786.5C 294.251,776.725 294.917,766.725 294.5,756.5C 297.533,743.821 299.199,730.821 299.5,717.5C 299.5,716.833 299.5,716.167 299.5,715.5C 301.177,711.455 301.844,707.122 301.5,702.5C 301.5,701.833 301.5,701.167 301.5,700.5C 303.118,697.829 303.785,694.829 303.5,691.5C 304.617,684.134 305.95,676.8 307.5,669.5C 308.924,667.485 309.59,665.152 309.5,662.5C 335.014,547.146 384.848,443.813 459,352.5C 498.788,304.398 545.621,264.898 599.5,234C 631.543,216.653 665.543,204.819 701.5,198.5C 707.712,198.477 713.712,197.81 719.5,196.5C 748.985,193.756 777.985,196.423 806.5,204.5 Z"/></g>
<g><path style="opacity:1" fill="#8f8c94" d="M 719.5,196.5 C 713.712,197.81 707.712,198.477 701.5,198.5C 707.274,197.054 713.274,196.388 719.5,196.5 Z"/></g>
<g><path style="opacity:1" fill="#5e5b62" d="M 806.5,204.5 C 811.703,205.009 816.37,206.676 820.5,209.5C 815.607,208.204 810.94,206.538 806.5,204.5 Z"/></g>
<g><path style="opacity:1" fill="#b9b7bd" d="M 902.5,224.5 C 904.167,224.5 905.833,224.5 907.5,224.5C 907.167,227.5 908.5,228.833 911.5,228.5C 911.961,231.303 913.295,233.637 915.5,235.5C 910.868,232.202 906.534,228.536 902.5,224.5 Z"/></g>
<g><path style="opacity:1" fill="#020203" d="M 801.5,307.5 C 811.833,307.5 822.167,307.5 832.5,307.5C 832.664,310.187 832.497,312.854 832,315.5C 831.705,313.069 830.538,311.236 828.5,310C 825.518,309.502 822.518,309.335 819.5,309.5C 819.334,319.839 819.5,330.172 820,340.5C 820.976,342.887 822.809,344.054 825.5,344C 820.167,344.667 814.833,344.667 809.5,344C 811.329,343.727 812.829,342.893 814,341.5C 814.5,330.839 814.667,320.172 814.5,309.5C 808.404,307.926 804.238,309.926 802,315.5C 801.503,312.854 801.336,310.187 801.5,307.5 Z"/></g>
<g><path style="opacity:1" fill="#0b0b0b" d="M 844.5,315.5 C 844.217,314.711 843.717,314.044 843,313.5C 842.176,322.343 842.343,331.01 843.5,339.5C 843.433,342.766 845.099,344.266 848.5,344C 844.167,344.667 839.833,344.667 835.5,344C 837.329,343.727 838.829,342.893 840,341.5C 840.667,330.833 840.667,320.167 840,309.5C 838.601,308.773 837.101,308.273 835.5,308C 839.211,307.175 842.878,307.341 846.5,308.5C 850.577,317.653 854.91,326.653 859.5,335.5C 863.761,326.552 867.928,317.552 872,308.5C 875.744,307.374 879.577,307.207 883.5,308C 881.899,308.273 880.399,308.773 879,309.5C 878.333,320.5 878.333,331.5 879,342.5C 880.399,343.227 881.899,343.727 883.5,344C 878.167,344.667 872.833,344.667 867.5,344C 868.872,343.598 870.205,343.098 871.5,342.5C 872.665,333.184 872.832,323.851 872,314.5C 867.326,324.535 862.659,334.535 858,344.5C 852.958,335.083 848.458,325.416 844.5,315.5 Z"/></g>
<g><path style="opacity:1" fill="#767676" d="M 844.5,315.5 C 843.508,323.316 843.174,331.316 843.5,339.5C 842.343,331.01 842.176,322.343 843,313.5C 843.717,314.044 844.217,314.711 844.5,315.5 Z"/></g>
<g><path style="opacity:1" fill="#919193" d="M 639.5,335.5 C 663.952,332.643 687.952,334.81 711.5,342C 712.056,342.383 712.389,342.883 712.5,343.5C 707.702,342.649 703.036,341.482 698.5,340C 691.087,339.605 683.754,338.772 676.5,337.5C 676.082,336.778 675.416,336.278 674.5,336C 662.838,335.5 651.171,335.333 639.5,335.5 Z"/></g>
<g><path style="opacity:1" fill="#7d7d7e" d="M 639.5,335.5 C 636.833,336.167 634.167,336.833 631.5,337.5C 624.374,337.343 617.374,338.01 610.5,339.5C 605.202,340.685 599.869,341.685 594.5,342.5C 594.611,341.883 594.944,341.383 595.5,341C 601.947,339.842 608.281,338.508 614.5,337C 622.835,336.458 631.169,335.958 639.5,335.5 Z"/></g>
<g><path style="opacity:1" fill="#333333" d="M 639.5,335.5 C 651.171,335.333 662.838,335.5 674.5,336C 675.416,336.278 676.082,336.778 676.5,337.5C 661.5,337.5 646.5,337.5 631.5,337.5C 634.167,336.833 636.833,336.167 639.5,335.5 Z"/></g>
<g><path style="opacity:1" fill="#020202" d="M 631.5,337.5 C 646.5,337.5 661.5,337.5 676.5,337.5C 683.754,338.772 691.087,339.605 698.5,340C 703.036,341.482 707.702,342.649 712.5,343.5C 713.429,344.315 714.429,345.148 715.5,346C 718.946,346.661 722.279,347.495 725.5,348.5C 728.952,350.03 732.285,351.697 735.5,353.5C 738.552,355.867 741.885,357.867 745.5,359.5C 746.167,359.5 746.833,359.5 747.5,359.5C 749.966,363.304 753.299,365.971 757.5,367.5C 758.5,369.167 759.833,370.5 761.5,371.5C 763.5,374.167 765.833,376.5 768.5,378.5C 773.256,383.912 777.589,389.579 781.5,395.5C 781.649,396.552 781.483,397.552 781,398.5C 778.07,400.11 775.57,402.11 773.5,404.5C 770.63,405.433 768.296,407.1 766.5,409.5C 761.128,412.687 756.128,416.521 751.5,421C 751,421.167 750.5,421.333 750,421.5C 748.699,419.845 747.199,418.511 745.5,417.5C 744.431,415.031 743.098,412.698 741.5,410.5C 739.57,406.9 736.903,403.9 733.5,401.5C 731.5,398.833 729.167,396.5 726.5,394.5C 725.089,392.086 723.089,390.419 720.5,389.5C 720.167,389.5 719.833,389.5 719.5,389.5C 717.966,387.631 715.966,386.298 713.5,385.5C 712.014,383.381 710.014,381.881 707.5,381C 702.909,379.313 698.243,377.813 693.5,376.5C 690.916,374.528 687.916,373.528 684.5,373.5C 683.609,372.89 682.609,372.557 681.5,372.5C 679.166,371.876 676.833,371.043 674.5,370C 671.518,369.502 668.518,369.335 665.5,369.5C 660.544,368.172 655.211,367.505 649.5,367.5C 644.167,367.667 638.833,367.833 633.5,368C 632.584,368.278 631.918,368.778 631.5,369.5C 629.901,369.232 628.568,369.566 627.5,370.5C 623.466,370.505 619.466,370.838 615.5,371.5C 608.874,372.464 602.207,373.464 595.5,374.5C 591.262,377.19 586.929,379.19 582.5,380.5C 578.584,382.413 574.584,384.08 570.5,385.5C 565.707,388.117 560.707,390.283 555.5,392C 554.619,392.708 553.953,393.542 553.5,394.5C 549.345,395.742 545.678,397.742 542.5,400.5C 539.919,402.05 537.252,403.55 534.5,405C 532.859,406.129 531.859,407.629 531.5,409.5C 530.508,409.328 529.842,409.662 529.5,410.5C 520.883,416.116 513.549,423.116 507.5,431.5C 505.83,434.002 503.664,436.002 501,437.5C 499.906,439.078 499.072,440.745 498.5,442.5C 494.781,444.25 492.781,447.25 492.5,451.5C 492.167,451.5 491.833,451.5 491.5,451.5C 486.72,456.313 483.053,461.979 480.5,468.5C 479.312,470.722 478.312,473.055 477.5,475.5C 473.747,482.023 470.747,489.023 468.5,496.5C 461.945,508.558 457.945,521.558 456.5,535.5C 453.241,557.43 452.741,579.43 455,601.5C 455.836,606.378 457.003,611.044 458.5,615.5C 459.451,616.919 459.784,618.585 459.5,620.5C 460.308,624.562 461.642,628.229 463.5,631.5C 463.62,634.578 464.62,637.245 466.5,639.5C 467.822,646.138 470.488,652.138 474.5,657.5C 475.5,657.833 476.167,658.5 476.5,659.5C 477.298,661.966 478.631,663.966 480.5,665.5C 481.401,666.29 482.068,667.29 482.5,668.5C 483.757,671.427 485.757,673.761 488.5,675.5C 489.5,677.167 490.833,678.5 492.5,679.5C 497.605,684.103 502.605,688.936 507.5,694C 509.628,694.655 511.628,695.489 513.5,696.5C 516.339,699.982 520.005,702.315 524.5,703.5C 530.636,706.983 536.969,709.983 543.5,712.5C 543.611,713.117 543.944,713.617 544.5,714C 548.794,715.143 553.127,715.977 557.5,716.5C 558.167,716.5 558.833,716.5 559.5,716.5C 559.611,717.117 559.944,717.617 560.5,718C 580.737,720.448 601.071,721.114 621.5,720C 636.778,716.461 651.778,712.128 666.5,707C 668.618,705.951 670.284,704.451 671.5,702.5C 671.833,702.5 672.167,702.5 672.5,702.5C 675.671,701.564 678.338,699.897 680.5,697.5C 680.833,697.5 681.167,697.5 681.5,697.5C 685.595,694.466 689.929,691.799 694.5,689.5C 697.107,688.541 699.107,686.874 700.5,684.5C 700.833,684.5 701.167,684.5 701.5,684.5C 705.166,682.496 708.166,679.829 710.5,676.5C 718.2,670.132 724.867,662.798 730.5,654.5C 734.417,648.735 738.584,643.068 743,637.5C 743.78,635.613 743.613,633.946 742.5,632.5C 701.67,631.501 660.67,631.168 619.5,631.5C 619.5,618.833 619.5,606.167 619.5,593.5C 677.167,593.5 734.833,593.5 792.5,593.5C 792.5,599.833 792.5,606.167 792.5,612.5C 791.78,618.138 791.447,623.804 791.5,629.5C 790.094,629.973 789.427,630.973 789.5,632.5C 784.345,636.986 780.345,642.319 777.5,648.5C 777.5,648.833 777.5,649.167 777.5,649.5C 775.807,650.475 774.307,651.808 773,653.5C 769.677,659.644 766.177,665.644 762.5,671.5C 759.314,677.218 755.648,682.552 751.5,687.5C 746.418,692.654 742.585,698.654 740,705.5C 736.41,707.895 734.077,711.228 733,715.5C 726.981,722.071 722.147,729.404 718.5,737.5C 717.075,740.688 715.408,743.688 713.5,746.5C 711.983,746.511 710.816,747.177 710,748.5C 706.253,754.612 702.419,760.612 698.5,766.5C 696.14,768.713 694.306,771.379 693,774.5C 691.333,775.833 689.667,777.167 688,778.5C 682.766,786.435 678.266,794.768 674.5,803.5C 674.573,805.027 673.906,806.027 672.5,806.5C 668.749,810.995 665.749,815.995 663.5,821.5C 659.719,825.624 656.719,830.291 654.5,835.5C 654.5,836.167 654.167,836.5 653.5,836.5C 652.215,838.452 650.549,840.118 648.5,841.5C 645.845,846.796 642.845,851.796 639.5,856.5C 636.395,859.275 634.062,862.608 632.5,866.5C 631.587,869.078 630.254,871.411 628.5,873.5C 625.208,878.917 621.208,883.917 616.5,888.5C 615.145,891.211 613.811,893.878 612.5,896.5C 606.312,904.211 601.145,912.544 597,921.5C 590.495,927.168 585.995,934.168 583.5,942.5C 580.195,946.811 576.861,951.145 573.5,955.5C 570.395,958.275 568.062,961.608 566.5,965.5C 566.267,967.062 565.6,968.395 564.5,969.5C 560.786,973.235 557.786,977.569 555.5,982.5C 552.517,985.788 550.017,989.454 548,993.5C 546.649,995.019 545.149,996.352 543.5,997.5C 541.06,1002.72 538.393,1007.72 535.5,1012.5C 533.549,1013.72 532.049,1015.38 531,1017.5C 528.663,1022.85 525.83,1027.85 522.5,1032.5C 522.573,1034.03 521.906,1035.03 520.5,1035.5C 515.823,1039 513.823,1043.5 514.5,1049C 540.003,1049.83 565.337,1049.66 590.5,1048.5C 591.147,1047.73 591.48,1046.73 591.5,1045.5C 591.66,1043.65 590.993,1042.31 589.5,1041.5C 588.677,1039.01 587.677,1036.68 586.5,1034.5C 586.5,1034.17 586.5,1033.83 586.5,1033.5C 582.913,1017.58 582.579,1001.58 585.5,985.5C 586.667,976.505 589,967.839 592.5,959.5C 592.833,959.5 593.167,959.5 593.5,959.5C 595.922,956.584 597.588,953.251 598.5,949.5C 599.675,949.719 600.675,949.386 601.5,948.5C 602.203,945.66 603.203,942.993 604.5,940.5C 606.42,937.238 608.754,934.238 611.5,931.5C 617.284,925.593 623.284,919.927 629.5,914.5C 631.749,913.92 633.415,912.587 634.5,910.5C 635.5,909.833 636.5,909.167 637.5,908.5C 643.992,906.169 650.325,903.502 656.5,900.5C 656.833,900.5 657.167,900.5 657.5,900.5C 673.237,895.051 689.57,893.051 706.5,894.5C 707.833,894.5 709.167,894.5 710.5,894.5C 716.232,897.826 722.565,899.493 729.5,899.5C 733.505,901.168 737.505,902.835 741.5,904.5C 746.419,907.409 751.085,910.742 755.5,914.5C 757.02,917.788 759.353,920.454 762.5,922.5C 771.284,933.252 776.618,945.585 778.5,959.5C 780.653,977.564 778.987,995.231 773.5,1012.5C 772.11,1019.94 769.11,1026.61 764.5,1032.5C 759.931,1038.63 755.597,1044.96 751.5,1051.5C 749.946,1052.69 748.279,1053.86 746.5,1055C 745.177,1055.82 744.511,1056.98 744.5,1058.5C 744.167,1059.5 743.5,1060.17 742.5,1060.5C 738.195,1062.85 734.528,1065.85 731.5,1069.5C 726.891,1072.2 722.058,1074.54 717,1076.5C 715.97,1076.84 715.47,1077.5 715.5,1078.5C 714.833,1078.5 714.167,1078.5 713.5,1078.5C 710.455,1079.28 707.789,1080.61 705.5,1082.5C 701.405,1082.81 697.405,1083.64 693.5,1085C 691.68,1085.2 690.347,1086.03 689.5,1087.5C 688.167,1087.5 686.833,1087.5 685.5,1087.5C 682.833,1087.5 680.167,1087.5 677.5,1087.5C 670.833,1087.5 664.167,1087.5 657.5,1087.5C 593.833,1087.5 530.167,1087.5 466.5,1087.5C 466.5,1080.17 466.5,1072.83 466.5,1065.5C 466.915,1060.76 467.749,1056.09 469,1051.5C 475.399,1044.5 480.232,1036.5 483.5,1027.5C 488.315,1023.35 491.982,1018.35 494.5,1012.5C 498.272,1010.21 500.605,1006.88 501.5,1002.5C 504.474,997.903 507.474,993.236 510.5,988.5C 516.077,985.956 519.243,981.623 520,975.5C 526.322,968.357 531.155,960.357 534.5,951.5C 541.336,944.674 546.336,936.674 549.5,927.5C 551.822,926.198 553.155,924.198 553.5,921.5C 555.767,918.729 558.267,916.062 561,913.5C 562.959,907.25 566.625,902.25 572,898.5C 575.123,892.589 577.957,886.589 580.5,880.5C 585.446,877.548 588.446,873.214 589.5,867.5C 590.08,865.251 591.413,863.585 593.5,862.5C 597.142,857.903 600.308,852.903 603,847.5C 607.773,843.28 611.273,838.28 613.5,832.5C 618.643,827.403 622.31,821.403 624.5,814.5C 632.075,806.432 638.242,797.432 643,787.5C 646.333,783.5 649.667,779.5 653,775.5C 653.494,773.866 653.66,772.199 653.5,770.5C 655.129,769.375 656.629,768.041 658,766.5C 660.178,762.144 662.345,757.811 664.5,753.5C 666.587,752.415 667.92,750.749 668.5,748.5C 672.103,746.565 674.103,743.565 674.5,739.5C 672.265,739.205 670.265,739.539 668.5,740.5C 665.002,742.808 661.002,743.975 656.5,744C 655.619,744.708 654.953,745.542 654.5,746.5C 653.833,746.5 653.167,746.5 652.5,746.5C 640.976,749.31 629.309,751.31 617.5,752.5C 598.14,752.783 578.806,752.45 559.5,751.5C 558.5,751.5 557.5,751.5 556.5,751.5C 555.791,750.596 554.791,750.263 553.5,750.5C 553.631,749.624 553.298,748.957 552.5,748.5C 544.277,746.245 535.943,744.578 527.5,743.5C 523.273,741.024 518.606,739.357 513.5,738.5C 507.006,736.049 500.673,733.049 494.5,729.5C 493.5,728.833 492.5,728.167 491.5,727.5C 487.512,724.515 483.512,721.515 479.5,718.5C 479.158,717.662 478.492,717.328 477.5,717.5C 471.184,711.251 464.684,704.918 458,698.5C 457.08,696.368 455.913,694.368 454.5,692.5C 451.713,689.809 449.046,687.143 446.5,684.5C 444.415,678.857 441.415,673.857 437.5,669.5C 437.573,667.973 436.906,666.973 435.5,666.5C 435.818,663.519 434.818,661.185 432.5,659.5C 432.5,659.167 432.5,658.833 432.5,658.5C 430.962,654.311 429.129,650.311 427,646.5C 426.263,642.793 425.429,639.127 424.5,635.5C 424.741,633.102 424.074,631.102 422.5,629.5C 423.114,624.968 422.114,620.968 419.5,617.5C 419.5,616.167 419.5,614.833 419.5,613.5C 419.331,608.819 418.998,604.152 418.5,599.5C 418.3,581.485 418.634,563.485 419.5,545.5C 421.882,536.413 423.548,527.08 424.5,517.5C 424.5,517.167 424.5,516.833 424.5,516.5C 425.117,516.389 425.617,516.056 426,515.5C 426.332,511.305 427.165,507.305 428.5,503.5C 432.196,497.734 434.529,491.401 435.5,484.5C 435.629,482.784 435.962,481.117 436.5,479.5C 437.458,479.047 438.292,478.381 439,477.5C 440.537,471.406 443.037,465.74 446.5,460.5C 448.093,459.652 449.26,458.319 450,456.5C 450.483,455.552 450.649,454.552 450.5,453.5C 453.772,447.565 457.438,441.898 461.5,436.5C 467.749,427.248 474.749,418.582 482.5,410.5C 483.5,408.833 484.833,407.5 486.5,406.5C 490.5,404.5 493.5,401.5 495.5,397.5C 499.648,393.596 503.981,389.929 508.5,386.5C 508.833,385.833 509.167,385.167 509.5,384.5C 510.391,383.89 511.391,383.557 512.5,383.5C 517.218,381.041 521.551,378.041 525.5,374.5C 526.802,372.178 528.802,370.845 531.5,370.5C 536.182,369.828 539.848,367.495 542.5,363.5C 547.198,361.161 551.865,358.827 556.5,356.5C 558.833,355.833 561.167,355.167 563.5,354.5C 569.414,352.306 575.414,350.306 581.5,348.5C 581.863,347.817 582.196,347.15 582.5,346.5C 582.833,346.5 583.167,346.5 583.5,346.5C 588.06,345.501 592.727,344.668 597.5,344C 602.021,342.92 606.354,341.42 610.5,339.5C 617.374,338.01 624.374,337.343 631.5,337.5 Z"/></g>
<g><path style="opacity:1" fill="#777779" d="M 797.5,336.5 C 798.5,336.5 799.5,336.5 800.5,336.5C 800.5,337.5 800.5,338.5 800.5,339.5C 799.5,339.5 798.5,339.5 797.5,339.5C 797.5,338.5 797.5,337.5 797.5,336.5 Z"/></g>
<g><path style="opacity:1" fill="#3e3e40" d="M 610.5,339.5 C 606.354,341.42 602.021,342.92 597.5,344C 592.727,344.668 588.06,345.501 583.5,346.5C 586.939,344.796 590.605,343.462 594.5,342.5C 599.869,341.685 605.202,340.685 610.5,339.5 Z"/></g>
<g><path style="opacity:1" fill="#717172" d="M 712.5,343.5 C 717.188,344.552 721.521,346.219 725.5,348.5C 722.279,347.495 718.946,346.661 715.5,346C 714.429,345.148 713.429,344.315 712.5,343.5 Z"/></g>
<g><path style="opacity:1" fill="#373738" d="M 582.5,346.5 C 582.196,347.15 581.863,347.817 581.5,348.5C 575.414,350.306 569.414,352.306 563.5,354.5C 563.833,353.833 564.167,353.167 564.5,352.5C 570.447,350.537 576.447,348.537 582.5,346.5 Z"/></g>
<g><path style="opacity:1" fill="#676768" d="M 735.5,353.5 C 739.635,354.328 742.968,356.328 745.5,359.5C 741.885,357.867 738.552,355.867 735.5,353.5 Z"/></g>
<g><path style="opacity:1" fill="#858585" d="M 564.5,352.5 C 564.167,353.167 563.833,353.833 563.5,354.5C 561.167,355.167 558.833,355.833 556.5,356.5C 558.612,354.229 561.279,352.896 564.5,352.5 Z"/></g>
<g><path style="opacity:1" fill="#9c9c9d" d="M 556.5,356.5 C 551.865,358.827 547.198,361.161 542.5,363.5C 542.5,362.5 542.5,361.5 542.5,360.5C 547.175,359.035 551.841,357.702 556.5,356.5 Z"/></g>
<g><path style="opacity:1" fill="#949495" d="M 747.5,359.5 C 750.354,361.509 753.354,363.343 756.5,365C 757.252,365.671 757.586,366.504 757.5,367.5C 753.299,365.971 749.966,363.304 747.5,359.5 Z"/></g>
<g><path style="opacity:1" fill="#2a2a2a" d="M 665.5,369.5 C 654.167,368.167 642.833,368.167 631.5,369.5C 631.918,368.778 632.584,368.278 633.5,368C 638.833,367.833 644.167,367.667 649.5,367.5C 655.211,367.505 660.544,368.172 665.5,369.5 Z"/></g>
<g><path style="opacity:1" fill="#3b3b3c" d="M 542.5,363.5 C 539.848,367.495 536.182,369.828 531.5,370.5C 534.358,366.99 538.024,364.657 542.5,363.5 Z"/></g>
<g><path style="opacity:1" fill="#747474" d="M 665.5,369.5 C 668.518,369.335 671.518,369.502 674.5,370C 676.833,371.043 679.166,371.876 681.5,372.5C 676.995,372.729 672.661,372.063 668.5,370.5C 654.833,370.5 641.167,370.5 627.5,370.5C 628.568,369.566 629.901,369.232 631.5,369.5C 642.833,368.167 654.167,368.167 665.5,369.5 Z"/></g>
<g><path style="opacity:1" fill="#b3b3b5" d="M 627.5,370.5 C 627.119,371.931 626.119,372.764 624.5,373C 614.371,373.769 604.371,375.269 594.5,377.5C 595.6,376.442 596.934,375.608 598.5,375C 604.534,374.88 610.2,373.714 615.5,371.5C 619.466,370.838 623.466,370.505 627.5,370.5 Z"/></g>
<g><path style="opacity:1" fill="#b3b3b5" d="M 668.5,370.5 C 672.661,372.063 676.995,372.729 681.5,372.5C 682.609,372.557 683.609,372.89 684.5,373.5C 685.5,374.167 686.5,374.833 687.5,375.5C 681.456,374.892 675.456,373.892 669.5,372.5C 669.137,371.817 668.804,371.15 668.5,370.5 Z"/></g>
<g><path style="opacity:1" fill="#a4a4a5" d="M 761.5,371.5 C 765.167,372.5 767.5,374.833 768.5,378.5C 765.833,376.5 763.5,374.167 761.5,371.5 Z"/></g>
<g><path style="opacity:1" fill="#464646" d="M 615.5,371.5 C 610.2,373.714 604.534,374.88 598.5,375C 596.934,375.608 595.6,376.442 594.5,377.5C 590.693,378.998 586.693,379.998 582.5,380.5C 586.929,379.19 591.262,377.19 595.5,374.5C 602.207,373.464 608.874,372.464 615.5,371.5 Z"/></g>
<g><path style="opacity:1" fill="#545455" d="M 684.5,373.5 C 687.916,373.528 690.916,374.528 693.5,376.5C 691.435,376.483 689.435,376.15 687.5,375.5C 686.5,374.833 685.5,374.167 684.5,373.5 Z"/></g>
<g><path style="opacity:1" fill="#555556" d="M 693.5,376.5 C 698.243,377.813 702.909,379.313 707.5,381C 710.014,381.881 712.014,383.381 713.5,385.5C 708.163,382.578 702.497,380.411 696.5,379C 695.429,378.148 694.429,377.315 693.5,376.5 Z"/></g>
<g><path style="opacity:1" fill="#a5a5a5" d="M 522.5,375.5 C 520.91,377.234 518.91,378.4 516.5,379C 514.959,380.371 513.625,381.871 512.5,383.5C 511.391,383.557 510.391,383.89 509.5,384.5C 512.23,379.293 516.563,376.293 522.5,375.5 Z"/></g>
<g><path style="opacity:1" fill="#414142" d="M 525.5,374.5 C 521.551,378.041 517.218,381.041 512.5,383.5C 513.625,381.871 514.959,380.371 516.5,379C 518.91,378.4 520.91,377.234 522.5,375.5C 523.391,374.89 524.391,374.557 525.5,374.5 Z"/></g>
<g><path style="opacity:1" fill="#5e5e60" d="M 713.5,385.5 C 715.966,386.298 717.966,387.631 719.5,389.5C 716.853,389.071 714.853,387.738 713.5,385.5 Z"/></g>
<g><path style="opacity:1" fill="#8d8d8e" d="M 508.5,386.5 C 503.981,389.929 499.648,393.596 495.5,397.5C 494.833,397.833 494.167,398.167 493.5,398.5C 496.989,392.684 501.989,388.684 508.5,386.5 Z"/></g>
<g><path style="opacity:1" fill="#535353" d="M 720.5,389.5 C 723.089,390.419 725.089,392.086 726.5,394.5C 723.911,393.581 721.911,391.914 720.5,389.5 Z"/></g>
<g><path style="opacity:1" fill="#727273" d="M 570.5,385.5 C 570.047,386.458 569.381,387.292 568.5,388C 563.257,389.72 558.257,391.886 553.5,394.5C 553.953,393.542 554.619,392.708 555.5,392C 560.707,390.283 565.707,388.117 570.5,385.5 Z"/></g>
<g><path style="opacity:1" fill="#7d7a82" d="M 980.5,395.5 C 981.924,397.515 982.59,399.848 982.5,402.5C 981.076,400.485 980.41,398.152 980.5,395.5 Z"/></g>
<g><path style="opacity:1" fill="#818182" d="M 733.5,401.5 C 736.903,403.9 739.57,406.9 741.5,410.5C 738.097,408.1 735.43,405.1 733.5,401.5 Z"/></g>
<g><path style="opacity:1" fill="#676768" d="M 781.5,395.5 C 782.598,396.601 782.765,397.934 782,399.5C 779.348,401.491 776.514,403.158 773.5,404.5C 775.57,402.11 778.07,400.11 781,398.5C 781.483,397.552 781.649,396.552 781.5,395.5 Z"/></g>
<g><path style="opacity:1" fill="#444445" d="M 495.5,397.5 C 493.5,401.5 490.5,404.5 486.5,406.5C 488.169,403.17 490.502,400.503 493.5,398.5C 494.167,398.167 494.833,397.833 495.5,397.5 Z"/></g>
<g><path style="opacity:1" fill="#b0b0b1" d="M 553.5,394.5 C 551.788,397.711 549.121,399.544 545.5,400C 544.228,401.307 543.228,402.807 542.5,404.5C 537.556,406.799 532.889,409.466 528.5,412.5C 528.833,411.833 529.167,411.167 529.5,410.5C 529.842,409.662 530.508,409.328 531.5,409.5C 535.539,406.921 539.206,403.921 542.5,400.5C 545.678,397.742 549.345,395.742 553.5,394.5 Z"/></g>
<g><path style="opacity:1" fill="#575757" d="M 542.5,400.5 C 539.206,403.921 535.539,406.921 531.5,409.5C 531.859,407.629 532.859,406.129 534.5,405C 537.252,403.55 539.919,402.05 542.5,400.5 Z"/></g>
<g><path style="opacity:1" fill="#4c4c4c" d="M 773.5,404.5 C 773.167,405.167 772.833,405.833 772.5,406.5C 770.483,407.529 768.483,408.529 766.5,409.5C 768.296,407.1 770.63,405.433 773.5,404.5 Z"/></g>
<g><path style="opacity:1" fill="#646465" d="M 529.5,410.5 C 529.167,411.167 528.833,411.833 528.5,412.5C 521.843,417.491 515.843,423.157 510.5,429.5C 509.5,430.167 508.5,430.833 507.5,431.5C 513.549,423.116 520.883,416.116 529.5,410.5 Z"/></g>
<g><path style="opacity:1" fill="#707072" d="M 482.5,410.5 C 474.749,418.582 467.749,427.248 461.5,436.5C 466.234,426.09 473.234,417.423 482.5,410.5 Z"/></g>
<g><path style="opacity:1" fill="#969697" d="M 772.5,406.5 C 765.72,411.478 759.053,416.812 752.5,422.5C 750.604,423.466 748.604,423.799 746.5,423.5C 746.483,421.435 746.15,419.435 745.5,417.5C 747.199,418.511 748.699,419.845 750,421.5C 750.5,421.333 751,421.167 751.5,421C 756.128,416.521 761.128,412.687 766.5,409.5C 768.483,408.529 770.483,407.529 772.5,406.5 Z"/></g>
<g><path style="opacity:1" fill="#a7a7a9" d="M 510.5,429.5 C 507.909,435.092 503.909,439.426 498.5,442.5C 499.072,440.745 499.906,439.078 501,437.5C 503.664,436.002 505.83,434.002 507.5,431.5C 508.5,430.833 509.5,430.167 510.5,429.5 Z"/></g>
<g><path style="opacity:1" fill="#868688" d="M 498.5,442.5 C 497.281,446.046 495.281,449.046 492.5,451.5C 492.781,447.25 494.781,444.25 498.5,442.5 Z"/></g>
<g><path style="opacity:1" fill="#737177" d="M 993.5,446.5 C 994.924,448.515 995.59,450.848 995.5,453.5C 994.076,451.485 993.41,449.152 993.5,446.5 Z"/></g>
<g><path style="opacity:1" fill="#5e5e5f" d="M 491.5,451.5 C 489.493,455.213 487.493,458.879 485.5,462.5C 484.182,464.751 482.516,466.751 480.5,468.5C 483.053,461.979 486.72,456.313 491.5,451.5 Z"/></g>
<g><path style="opacity:1" fill="#4e4e4e" d="M 449.5,453.5 C 449.833,453.5 450.167,453.5 450.5,453.5C 450.649,454.552 450.483,455.552 450,456.5C 449.26,458.319 448.093,459.652 446.5,460.5C 447.312,458.055 448.312,455.722 449.5,453.5 Z"/></g>
<g><path style="opacity:1" fill="#b4b4b5" d="M 449.5,453.5 C 448.312,455.722 447.312,458.055 446.5,460.5C 443.037,465.74 440.537,471.406 439,477.5C 438.292,478.381 437.458,479.047 436.5,479.5C 437.423,476.223 438.256,472.89 439,469.5C 441.761,466.759 442.928,463.426 442.5,459.5C 443.5,459.5 444.5,459.5 445.5,459.5C 445.354,456.446 446.687,454.446 449.5,453.5 Z"/></g>
<g><path style="opacity:1" fill="#9f9fa1" d="M 485.5,462.5 C 485.108,464.179 484.608,465.846 484,467.5C 481.908,470.405 479.741,473.072 477.5,475.5C 478.312,473.055 479.312,470.722 480.5,468.5C 482.516,466.751 484.182,464.751 485.5,462.5 Z"/></g>
<g><path style="opacity:1" fill="#a5a2a9" d="M 996.5,463.5 C 997.268,464.263 997.768,465.263 998,466.5C 998.528,473.898 999.361,481.231 1000.5,488.5C 998.126,480.494 996.793,472.161 996.5,463.5 Z"/></g>
<g><path style="opacity:1" fill="#5f5c63" d="M 1027.5,477.5 C 1028.9,481.591 1029.56,485.924 1029.5,490.5C 1027.95,486.433 1027.28,482.1 1027.5,477.5 Z"/></g>
<g><path style="opacity:1" fill="#545454" d="M 435.5,484.5 C 434.529,491.401 432.196,497.734 428.5,503.5C 428.517,501.435 428.85,499.435 429.5,497.5C 431.107,493.025 433.107,488.692 435.5,484.5 Z"/></g>
<g><path style="opacity:1" fill="#949496" d="M 429.5,497.5 C 428.85,499.435 428.517,501.435 428.5,503.5C 427.165,507.305 426.332,511.305 426,515.5C 425.617,516.056 425.117,516.389 424.5,516.5C 425.046,512.172 425.713,507.838 426.5,503.5C 427.011,501.116 428.011,499.116 429.5,497.5 Z"/></g>
<g><path style="opacity:1" fill="#616162" d="M 468.5,496.5 C 467.507,500.641 466.007,504.641 464,508.5C 463.068,515.329 461.568,521.996 459.5,528.5C 458.131,530.691 457.131,533.025 456.5,535.5C 457.945,521.558 461.945,508.558 468.5,496.5 Z"/></g>
<g><path style="opacity:1" fill="#a1a1a1" d="M 423.5,519.5 C 421.801,528.135 420.467,536.802 419.5,545.5C 418.691,547.292 418.191,549.292 418,551.5C 417.5,567.497 417.333,583.497 417.5,599.5C 417.5,602.833 417.5,606.167 417.5,609.5C 416.51,603.69 416.177,597.69 416.5,591.5C 416.5,581.833 416.5,572.167 416.5,562.5C 416.334,556.824 416.501,551.157 417,545.5C 418.381,536.768 419.547,528.101 420.5,519.5C 421.5,519.5 422.5,519.5 423.5,519.5 Z"/></g>
<g><path style="opacity:1" fill="#3d3d3e" d="M 424.5,517.5 C 423.548,527.08 421.882,536.413 419.5,545.5C 420.467,536.802 421.801,528.135 423.5,519.5C 423.328,518.508 423.662,517.842 424.5,517.5 Z"/></g>
<g><path style="opacity:1" fill="#292929" d="M 419.5,545.5 C 418.634,563.485 418.3,581.485 418.5,599.5C 418.167,599.5 417.833,599.5 417.5,599.5C 417.333,583.497 417.5,567.497 418,551.5C 418.191,549.292 418.691,547.292 419.5,545.5 Z"/></g>
<g><path style="opacity:1" fill="#b2b2b3" d="M 416.5,562.5 C 416.5,572.167 416.5,581.833 416.5,591.5C 415.174,587.386 414.507,582.886 414.5,578C 414.667,573.5 414.833,569 415,564.5C 415.278,563.584 415.778,562.918 416.5,562.5 Z"/></g>
<g><path style="opacity:1" fill="#8b8b8c" d="M 459.5,528.5 C 454.583,557.428 454.25,586.428 458.5,615.5C 457.003,611.044 455.836,606.378 455,601.5C 452.741,579.43 453.241,557.43 456.5,535.5C 457.131,533.025 458.131,530.691 459.5,528.5 Z"/></g>
<g><path style="opacity:1" fill="#d4d4d6" d="M 795.5,589.5 C 735.496,589.167 675.496,589.5 615.5,590.5C 614.517,604.785 614.184,619.118 614.5,633.5C 613.169,626.699 612.503,619.533 612.5,612C 612.667,604.833 612.833,597.667 613,590.5C 613.833,589.667 614.667,588.833 615.5,588C 645.5,587.833 675.5,587.667 705.5,587.5C 735.841,587.5 765.841,588.167 795.5,589.5 Z"/></g>
<g><path style="opacity:1" fill="#a1a1a3" d="M 795.5,589.5 C 796.559,594.448 796.726,599.448 796,604.5C 794.884,612.946 793.384,621.279 791.5,629.5C 791.447,623.804 791.78,618.138 792.5,612.5C 793.23,606.763 794.23,600.93 795.5,595C 795.316,593.624 794.649,592.791 793.5,592.5C 735.001,591.335 676.335,591.168 617.5,592C 616.191,605.803 616.191,619.637 617.5,633.5C 617.5,633.833 617.5,634.167 617.5,634.5C 616.391,634.443 615.391,634.11 614.5,633.5C 614.184,619.118 614.517,604.785 615.5,590.5C 675.496,589.5 735.496,589.167 795.5,589.5 Z"/></g>
<g><path style="opacity:1" fill="#585859" d="M 793.5,592.5 C 735.167,592.5 676.833,592.5 618.5,592.5C 618.5,605.833 618.5,619.167 618.5,632.5C 659.833,632.5 701.167,632.5 742.5,632.5C 743.613,633.946 743.78,635.613 743,637.5C 738.584,643.068 734.417,648.735 730.5,654.5C 730.833,653.167 731.167,651.833 731.5,650.5C 734.857,646.465 737.857,642.132 740.5,637.5C 742.104,636.713 742.771,635.38 742.5,633.5C 700.833,633.5 659.167,633.5 617.5,633.5C 616.191,619.637 616.191,605.803 617.5,592C 676.335,591.168 735.001,591.335 793.5,592.5 Z"/></g>
<g><path style="opacity:1" fill="#252525" d="M 793.5,592.5 C 794.649,592.791 795.316,593.624 795.5,595C 794.23,600.93 793.23,606.763 792.5,612.5C 792.5,606.167 792.5,599.833 792.5,593.5C 734.833,593.5 677.167,593.5 619.5,593.5C 619.5,606.167 619.5,618.833 619.5,631.5C 660.67,631.168 701.67,631.501 742.5,632.5C 701.167,632.5 659.833,632.5 618.5,632.5C 618.5,619.167 618.5,605.833 618.5,592.5C 676.833,592.5 735.167,592.5 793.5,592.5 Z"/></g>
<g><path style="opacity:1" fill="#b2b0b6" d="M 1004.5,566.5 C 1005.05,585.092 1004.05,603.426 1001.5,621.5C 1001.95,602.984 1002.95,584.651 1004.5,566.5 Z"/></g>
<g><path style="opacity:1" fill="#5c5c5c" d="M 417.5,599.5 C 417.833,599.5 418.167,599.5 418.5,599.5C 418.998,604.152 419.331,608.819 419.5,613.5C 418.833,612.167 418.167,610.833 417.5,609.5C 417.5,606.167 417.5,602.833 417.5,599.5 Z"/></g>
<g><path style="opacity:1" fill="#c1bfc5" d="M 1031.5,606.5 C 1031.56,615.513 1031.89,624.513 1032.5,633.5C 1031.5,633.5 1030.5,633.5 1029.5,633.5C 1029.78,635.415 1029.45,637.081 1028.5,638.5C 1029.29,627.668 1030.29,617.001 1031.5,606.5 Z"/></g>
<g><path style="opacity:1" fill="#7f7f7f" d="M 459.5,620.5 C 462.19,623.547 463.524,627.213 463.5,631.5C 461.642,628.229 460.308,624.562 459.5,620.5 Z"/></g>
<g><path style="opacity:1" fill="#606060" d="M 419.5,617.5 C 422.114,620.968 423.114,624.968 422.5,629.5C 421.508,625.596 420.508,621.596 419.5,617.5 Z"/></g>
<g><path style="opacity:1" fill="#88888a" d="M 617.5,634.5 C 617.5,634.167 617.5,633.833 617.5,633.5C 659.167,633.5 700.833,633.5 742.5,633.5C 742.771,635.38 742.104,636.713 740.5,637.5C 740.5,636.5 740.5,635.5 740.5,634.5C 699.5,634.5 658.5,634.5 617.5,634.5 Z"/></g>
<g><path style="opacity:1" fill="#646464" d="M 422.5,629.5 C 424.074,631.102 424.741,633.102 424.5,635.5C 424.167,635.5 423.833,635.5 423.5,635.5C 422.85,633.565 422.517,631.565 422.5,629.5 Z"/></g>
<g><path style="opacity:1" fill="#cbcbcc" d="M 614.5,633.5 C 615.391,634.11 616.391,634.443 617.5,634.5C 658.5,634.5 699.5,634.5 740.5,634.5C 740.5,635.5 740.5,636.5 740.5,637.5C 737.857,642.132 734.857,646.465 731.5,650.5C 733.35,645.963 735.684,641.63 738.5,637.5C 697.837,636.667 657.171,636.167 616.5,636C 615.244,635.583 614.577,634.75 614.5,633.5 Z"/></g>
<g><path style="opacity:1" fill="#5e5e5e" d="M 789.5,632.5 C 788.431,634.969 787.098,637.302 785.5,639.5C 783.521,643.011 780.855,646.011 777.5,648.5C 780.345,642.319 784.345,636.986 789.5,632.5 Z"/></g>
<g><path style="opacity:1" fill="#505050" d="M 466.5,639.5 C 469.662,645.167 472.328,651.167 474.5,657.5C 470.488,652.138 467.822,646.138 466.5,639.5 Z"/></g>
<g><path style="opacity:1" fill="#a7a7a8" d="M 423.5,635.5 C 423.833,635.5 424.167,635.5 424.5,635.5C 425.429,639.127 426.263,642.793 427,646.5C 429.129,650.311 430.962,654.311 432.5,658.5C 430.567,657.358 429.067,655.692 428,653.5C 425.595,647.774 424.095,641.774 423.5,635.5 Z"/></g>
<g><path style="opacity:1" fill="#b4b4b6" d="M 785.5,639.5 C 782.858,644.247 780.692,649.247 779,654.5C 777.681,656.487 775.848,657.654 773.5,658C 772.968,660.463 771.634,662.297 769.5,663.5C 771.635,658.567 774.302,653.901 777.5,649.5C 777.5,649.167 777.5,648.833 777.5,648.5C 780.855,646.011 783.521,643.011 785.5,639.5 Z"/></g>
<g><path style="opacity:1" fill="#505050" d="M 777.5,649.5 C 774.302,653.901 771.635,658.567 769.5,663.5C 767.674,665.147 766.34,667.147 765.5,669.5C 764.5,670.167 763.5,670.833 762.5,671.5C 766.177,665.644 769.677,659.644 773,653.5C 774.307,651.808 775.807,650.475 777.5,649.5 Z"/></g>
<g><path style="opacity:1" fill="#505050" d="M 476.5,659.5 C 478.738,660.853 480.071,662.853 480.5,665.5C 478.631,663.966 477.298,661.966 476.5,659.5 Z"/></g>
<g><path style="opacity:1" fill="#5e5e5e" d="M 730.5,654.5 C 724.867,662.798 718.2,670.132 710.5,676.5C 714.769,671.219 719.103,665.886 723.5,660.5C 725.638,658.265 727.971,656.265 730.5,654.5 Z"/></g>
<g><path style="opacity:1" fill="#868687" d="M 432.5,659.5 C 434.818,661.185 435.818,663.519 435.5,666.5C 433.706,664.572 432.706,662.238 432.5,659.5 Z"/></g>
<g><path style="opacity:1" fill="#949298" d="M 1028.5,640.5 C 1027.78,648.504 1026.94,656.504 1026,664.5C 1025.72,667.457 1024.89,670.123 1023.5,672.5C 1024.88,661.656 1026.55,650.99 1028.5,640.5 Z"/></g>
<g><path style="opacity:1" fill="#7d7a81" d="M 309.5,662.5 C 309.59,665.152 308.924,667.485 307.5,669.5C 307.41,666.848 308.076,664.515 309.5,662.5 Z"/></g>
<g><path style="opacity:1" fill="#595959" d="M 482.5,668.5 C 485.243,670.239 487.243,672.573 488.5,675.5C 485.757,673.761 483.757,671.427 482.5,668.5 Z"/></g>
<g><path style="opacity:1" fill="#79797a" d="M 437.5,669.5 C 441.415,673.857 444.415,678.857 446.5,684.5C 444.237,681.059 441.737,677.726 439,674.5C 438.392,672.846 437.892,671.179 437.5,669.5 Z"/></g>
<g><path style="opacity:1" fill="#4b4b4c" d="M 710.5,676.5 C 708.166,679.829 705.166,682.496 701.5,684.5C 703.834,681.171 706.834,678.504 710.5,676.5 Z"/></g>
<g><path style="opacity:1" fill="#89898a" d="M 492.5,679.5 C 499.787,684.784 506.787,690.45 513.5,696.5C 511.628,695.489 509.628,694.655 507.5,694C 502.605,688.936 497.605,684.103 492.5,679.5 Z"/></g>
<g><path style="opacity:1" fill="#5f5f60" d="M 700.5,684.5 C 699.107,686.874 697.107,688.541 694.5,689.5C 695.11,688.609 695.443,687.609 695.5,686.5C 697.322,686.169 698.989,685.502 700.5,684.5 Z"/></g>
<g><path style="opacity:1" fill="#9c9c9d" d="M 765.5,669.5 C 761.851,677.549 757.351,685.215 752,692.5C 749.637,694.366 747.47,696.366 745.5,698.5C 747.5,694.833 749.5,691.167 751.5,687.5C 755.648,682.552 759.314,677.218 762.5,671.5C 763.5,670.833 764.5,670.167 765.5,669.5 Z"/></g>
<g><path style="opacity:1" fill="#b4b4b5" d="M 695.5,686.5 C 695.443,687.609 695.11,688.609 694.5,689.5C 689.929,691.799 685.595,694.466 681.5,697.5C 681.703,695.956 682.37,694.622 683.5,693.5C 687.318,690.881 691.318,688.548 695.5,686.5 Z"/></g>
<g><path style="opacity:1" fill="#bab8be" d="M 1023.5,674.5 C 1023.38,681.882 1022.72,689.216 1021.5,696.5C 1020.36,703.133 1018.36,709.467 1015.5,715.5C 1018.64,701.803 1021.3,688.136 1023.5,674.5 Z"/></g>
<g><path style="opacity:1" fill="#909091" d="M 446.5,684.5 C 449.046,687.143 451.713,689.809 454.5,692.5C 455.913,694.368 457.08,696.368 458,698.5C 464.684,704.918 471.184,711.251 477.5,717.5C 469.329,712.007 461.996,705.34 455.5,697.5C 454.311,696.571 452.978,696.238 451.5,696.5C 451.657,695.127 451.49,693.793 451,692.5C 448.838,690.18 447.338,687.513 446.5,684.5 Z"/></g>
<g><path style="opacity:1" fill="#737374" d="M 513.5,696.5 C 517.845,697.927 521.511,700.26 524.5,703.5C 520.005,702.315 516.339,699.982 513.5,696.5 Z"/></g>
<g><path style="opacity:1" fill="#7d7a82" d="M 303.5,691.5 C 303.785,694.829 303.118,697.829 301.5,700.5C 301.676,697.273 302.343,694.273 303.5,691.5 Z"/></g>
<g><path style="opacity:1" fill="#818181" d="M 680.5,697.5 C 678.338,699.897 675.671,701.564 672.5,702.5C 672.5,701.5 672.5,700.5 672.5,699.5C 675.451,699.713 678.118,699.046 680.5,697.5 Z"/></g>
<g><path style="opacity:1" fill="#4f4f4f" d="M 751.5,687.5 C 749.5,691.167 747.5,694.833 745.5,698.5C 745.5,699.167 745.5,699.833 745.5,700.5C 742.271,704.912 738.771,709.246 735,713.5C 731,720.167 727,726.833 723,733.5C 721.629,735.041 720.129,736.375 718.5,737.5C 722.147,729.404 726.981,722.071 733,715.5C 734.077,711.228 736.41,707.895 740,705.5C 742.585,698.654 746.418,692.654 751.5,687.5 Z"/></g>
<g><path style="opacity:1" fill="#a4a3a9" d="M 301.5,702.5 C 301.844,707.122 301.177,711.455 299.5,715.5C 299.438,710.924 300.105,706.591 301.5,702.5 Z"/></g>
<g><path style="opacity:1" fill="#848485" d="M 524.5,703.5 C 531.578,706.743 538.911,709.243 546.5,711C 547.571,711.852 548.571,712.685 549.5,713.5C 547.435,713.483 545.435,713.15 543.5,712.5C 536.969,709.983 530.636,706.983 524.5,703.5 Z"/></g>
<g><path style="opacity:1" fill="#393939" d="M 543.5,712.5 C 545.435,713.15 547.435,713.483 549.5,713.5C 552.132,714.751 554.799,715.751 557.5,716.5C 553.127,715.977 548.794,715.143 544.5,714C 543.944,713.617 543.611,713.117 543.5,712.5 Z"/></g>
<g><path style="opacity:1" fill="#a5a5a6" d="M 745.5,700.5 C 745.657,701.873 745.49,703.207 745,704.5C 741.962,707.203 739.295,710.203 737,713.5C 729.298,726.74 721.131,739.74 712.5,752.5C 712.043,753.298 711.376,753.631 710.5,753.5C 711.227,751.046 712.227,748.713 713.5,746.5C 715.408,743.688 717.075,740.688 718.5,737.5C 720.129,736.375 721.629,735.041 723,733.5C 727,726.833 731,720.167 735,713.5C 738.771,709.246 742.271,704.912 745.5,700.5 Z"/></g>
<g><path style="opacity:1" fill="#737373" d="M 671.5,702.5 C 670.284,704.451 668.618,705.951 666.5,707C 651.778,712.128 636.778,716.461 621.5,720C 601.071,721.114 580.737,720.448 560.5,718C 559.944,717.617 559.611,717.117 559.5,716.5C 598.529,723.895 635.862,719.228 671.5,702.5 Z"/></g>
<g><path style="opacity:1" fill="#9f9f9f" d="M 479.5,718.5 C 483.512,721.515 487.512,724.515 491.5,727.5C 488.232,725.967 484.899,724.634 481.5,723.5C 481.608,721.486 480.942,719.82 479.5,718.5 Z"/></g>
<g><path style="opacity:1" fill="#b1b1b3" d="M 494.5,729.5 C 500.673,733.049 507.006,736.049 513.5,738.5C 506.919,737.252 500.586,735.252 494.5,732.5C 494.5,731.5 494.5,730.5 494.5,729.5 Z"/></g>
<g><path style="opacity:1" fill="#a19fa6" d="M 299.5,717.5 C 299.199,730.821 297.533,743.821 294.5,756.5C 294.792,743.185 296.459,730.185 299.5,717.5 Z"/></g>
<g><path style="opacity:1" fill="#3a3a3a" d="M 668.5,740.5 C 670.265,739.539 672.265,739.205 674.5,739.5C 674.103,743.565 672.103,746.565 668.5,748.5C 668.557,747.391 668.89,746.391 669.5,745.5C 669.5,745.167 669.5,744.833 669.5,744.5C 671.912,744.306 672.912,742.973 672.5,740.5C 671.167,740.5 669.833,740.5 668.5,740.5 Z"/></g>
<g><path style="opacity:1" fill="#5b5b5c" d="M 513.5,738.5 C 518.606,739.357 523.273,741.024 527.5,743.5C 522.394,742.643 517.727,740.976 513.5,738.5 Z"/></g>
<g><path style="opacity:1" fill="#c1bfc5" d="M 270.5,717.5 C 267,741.187 264.667,764.854 263.5,788.5C 264.341,777.597 264.341,766.763 263.5,756C 264.126,755.25 264.626,754.416 265,753.5C 265.3,746.085 266.134,738.752 267.5,731.5C 267.013,730.554 266.68,729.554 266.5,728.5C 267.728,724.72 269.061,721.053 270.5,717.5 Z"/></g>
<g><path style="opacity:1" fill="#767677" d="M 668.5,740.5 C 669.833,740.5 671.167,740.5 672.5,740.5C 672.912,742.973 671.912,744.306 669.5,744.5C 669.38,743.414 668.713,742.747 667.5,742.5C 663.187,744.153 658.854,745.487 654.5,746.5C 654.953,745.542 655.619,744.708 656.5,744C 661.002,743.975 665.002,742.808 668.5,740.5 Z"/></g>
<g><path style="opacity:1" fill="#2b2b2c" d="M 527.5,743.5 C 535.943,744.578 544.277,746.245 552.5,748.5C 553.298,748.957 553.631,749.624 553.5,750.5C 548.253,749.117 542.919,748.117 537.5,747.5C 533.966,746.735 530.632,745.402 527.5,743.5 Z"/></g>
<g><path style="opacity:1" fill="#939393" d="M 537.5,747.5 C 542.919,748.117 548.253,749.117 553.5,750.5C 554.791,750.263 555.791,750.596 556.5,751.5C 550.604,750.506 544.604,749.673 538.5,749C 537.944,748.617 537.611,748.117 537.5,747.5 Z"/></g>
<g><path style="opacity:1" fill="#888888" d="M 652.5,746.5 C 652.196,747.15 651.863,747.817 651.5,748.5C 640.326,750.696 628.992,752.362 617.5,753.5C 617.5,753.167 617.5,752.833 617.5,752.5C 629.309,751.31 640.976,749.31 652.5,746.5 Z"/></g>
<g><path style="opacity:1" fill="#4d4d4d" d="M 559.5,751.5 C 578.806,752.45 598.14,752.783 617.5,752.5C 617.5,752.833 617.5,753.167 617.5,753.5C 616.833,753.5 616.167,753.5 615.5,753.5C 600.831,754.759 586.165,754.759 571.5,753.5C 568.15,753.665 564.817,753.498 561.5,753C 560.584,752.722 559.918,752.222 559.5,751.5 Z"/></g>
<g><path style="opacity:1" fill="#9c9c9d" d="M 571.5,753.5 C 586.165,754.759 600.831,754.759 615.5,753.5C 614.391,754.29 613.058,754.79 611.5,755C 597.958,755.938 584.624,755.438 571.5,753.5 Z"/></g>
<g><path style="opacity:1" fill="#979798" d="M 669.5,745.5 C 668.89,746.391 668.557,747.391 668.5,748.5C 667.92,750.749 666.587,752.415 664.5,753.5C 662.833,755.5 661.167,757.5 659.5,759.5C 661.371,753.747 664.704,749.081 669.5,745.5 Z"/></g>
<g><path style="opacity:1" fill="#919191" d="M 710.5,753.5 C 705.664,759.182 701.831,765.515 699,772.5C 696.963,774.706 694.797,776.706 692.5,778.5C 695.439,775.044 697.439,771.044 698.5,766.5C 701.55,763.612 704.05,760.278 706,756.5C 707.615,755.614 709.115,754.614 710.5,753.5 Z"/></g>
<g><path style="opacity:1" fill="#6d6d6e" d="M 664.5,753.5 C 662.345,757.811 660.178,762.144 658,766.5C 656.629,768.041 655.129,769.375 653.5,770.5C 654.957,768.372 655.957,766.038 656.5,763.5C 657.5,762.167 658.5,760.833 659.5,759.5C 661.167,757.5 662.833,755.5 664.5,753.5 Z"/></g>
<g><path style="opacity:1" fill="#454545" d="M 713.5,746.5 C 712.227,748.713 711.227,751.046 710.5,753.5C 709.115,754.614 707.615,755.614 706,756.5C 704.05,760.278 701.55,763.612 698.5,766.5C 702.419,760.612 706.253,754.612 710,748.5C 710.816,747.177 711.983,746.511 713.5,746.5 Z"/></g>
<g><path style="opacity:1" fill="#3d3a42" d="M 973.5,766.5 C 972.61,772.166 970.943,777.5 968.5,782.5C 969.39,776.834 971.057,771.5 973.5,766.5 Z"/></g>
<g><path style="opacity:1" fill="#a3a3a5" d="M 656.5,763.5 C 655.957,766.038 654.957,768.372 653.5,770.5C 650.542,775.125 647.208,779.458 643.5,783.5C 644.511,781.628 645.345,779.628 646,777.5C 649.153,772.516 652.653,767.849 656.5,763.5 Z"/></g>
<g><path style="opacity:1" fill="#adabb1" d="M 294.5,756.5 C 294.917,766.725 294.251,776.725 292.5,786.5C 292.731,776.319 293.397,766.319 294.5,756.5 Z"/></g>
<g><path style="opacity:1" fill="#99969c" d="M 1000.5,774.5 C 999.61,780.166 997.943,785.5 995.5,790.5C 996.39,784.834 998.057,779.5 1000.5,774.5 Z"/></g>
<g><path style="opacity:1" fill="#2f2f2f" d="M 698.5,766.5 C 697.439,771.044 695.439,775.044 692.5,778.5C 687.177,785.259 682.677,792.592 679,800.5C 677.871,802.141 676.371,803.141 674.5,803.5C 678.266,794.768 682.766,786.435 688,778.5C 689.667,777.167 691.333,775.833 693,774.5C 694.306,771.379 696.14,768.713 698.5,766.5 Z"/></g>
<g><path style="opacity:1" fill="#4a4a4a" d="M 653.5,770.5 C 653.66,772.199 653.494,773.866 653,775.5C 649.667,779.5 646.333,783.5 643,787.5C 638.242,797.432 632.075,806.432 624.5,814.5C 626.511,810.97 628.345,807.303 630,803.5C 631.154,802.257 632.488,801.257 634,800.5C 637.321,794.989 640.488,789.322 643.5,783.5C 647.208,779.458 650.542,775.125 653.5,770.5 Z"/></g>
<g><path style="opacity:1" fill="#a8a8a9" d="M 692.5,778.5 C 688.154,785.01 684.654,792.01 682,799.5C 676.445,804.199 671.945,809.532 668.5,815.5C 669.833,812.5 671.167,809.5 672.5,806.5C 673.906,806.027 674.573,805.027 674.5,803.5C 676.371,803.141 677.871,802.141 679,800.5C 682.677,792.592 687.177,785.259 692.5,778.5 Z"/></g>
<g><path style="opacity:1" fill="#7a797f" d="M 960.5,805.5 C 960.245,807.967 959.245,809.967 957.5,811.5C 957.755,809.033 958.755,807.033 960.5,805.5 Z"/></g>
<g><path style="opacity:1" fill="#575757" d="M 672.5,806.5 C 671.167,809.5 669.833,812.5 668.5,815.5C 667.581,818.089 665.914,820.089 663.5,821.5C 665.749,815.995 668.749,810.995 672.5,806.5 Z"/></g>
<g><path style="opacity:1" fill="#c3c3c4" d="M 643.5,783.5 C 640.488,789.322 637.321,794.989 634,800.5C 632.488,801.257 631.154,802.257 630,803.5C 628.345,807.303 626.511,810.97 624.5,814.5C 619.801,819.903 616.135,825.903 613.5,832.5C 610.167,835.833 606.833,839.167 603.5,842.5C 603.277,839.886 604.444,838.219 607,837.5C 607.495,835.527 607.662,833.527 607.5,831.5C 609.606,831.321 611.272,830.321 612.5,828.5C 614.427,824.978 616.093,821.311 617.5,817.5C 618.672,817.081 619.672,816.415 620.5,815.5C 623.15,810.03 625.984,804.697 629,799.5C 630.441,798.13 632.108,797.13 634,796.5C 635,794.167 636,791.833 637,789.5C 639.402,787.628 641.569,785.628 643.5,783.5 Z"/></g>
<g><path style="opacity:1" fill="#3f3f3f" d="M 624.5,814.5 C 622.31,821.403 618.643,827.403 613.5,832.5C 616.135,825.903 619.801,819.903 624.5,814.5 Z"/></g>
<g><path style="opacity:1" fill="#777778" d="M 663.5,821.5 C 663.108,823.179 662.608,824.846 662,826.5C 659.061,829.277 656.561,832.277 654.5,835.5C 656.719,830.291 659.719,825.624 663.5,821.5 Z"/></g>
<g><path style="opacity:1" fill="#69696a" d="M 613.5,832.5 C 611.273,838.28 607.773,843.28 603,847.5C 600.308,852.903 597.142,857.903 593.5,862.5C 597.284,856.052 600.618,849.385 603.5,842.5C 606.833,839.167 610.167,835.833 613.5,832.5 Z"/></g>
<g><path style="opacity:1" fill="#727273" d="M 653.5,836.5 C 652.119,840.242 649.952,843.576 647,846.5C 645.488,850.883 643.321,854.883 640.5,858.5C 640.167,858.5 639.833,858.5 639.5,858.5C 639.5,857.833 639.5,857.167 639.5,856.5C 642.845,851.796 645.845,846.796 648.5,841.5C 650.549,840.118 652.215,838.452 653.5,836.5 Z"/></g>
<g><path style="opacity:1" fill="#383838" d="M 639.5,856.5 C 639.5,857.167 639.5,857.833 639.5,858.5C 637.167,861.167 634.833,863.833 632.5,866.5C 634.062,862.608 636.395,859.275 639.5,856.5 Z"/></g>
<g><path style="opacity:1" fill="#b9b9ba" d="M 639.5,858.5 C 639.833,858.5 640.167,858.5 640.5,858.5C 638.088,862.993 635.922,867.66 634,872.5C 630.77,875.703 628.436,879.37 627,883.5C 623.301,888.027 619.468,892.361 615.5,896.5C 615.5,895.833 615.5,895.167 615.5,894.5C 620.195,887.787 624.528,880.787 628.5,873.5C 630.254,871.411 631.587,869.078 632.5,866.5C 634.833,863.833 637.167,861.167 639.5,858.5 Z"/></g>
<g><path style="opacity:1" fill="#515152" d="M 589.5,867.5 C 588.446,873.214 585.446,877.548 580.5,880.5C 582.763,875.635 585.763,871.302 589.5,867.5 Z"/></g>
<g><path style="opacity:1" fill="#55515a" d="M 931.5,874.5 C 931.245,876.967 930.245,878.967 928.5,880.5C 928.755,878.033 929.755,876.033 931.5,874.5 Z"/></g>
<g><path style="opacity:1" fill="#3c3941" d="M 294.5,875.5 C 295.81,881.288 296.477,887.288 296.5,893.5C 294.943,887.739 294.276,881.739 294.5,875.5 Z"/></g>
<g><path style="opacity:1" fill="#c4c4c6" d="M 723.5,896.5 C 719.094,896.252 714.76,895.585 710.5,894.5C 709.167,894.5 707.833,894.5 706.5,894.5C 701.344,893.834 696.011,893.501 690.5,893.5C 682.972,893.291 675.639,893.958 668.5,895.5C 669.347,894.034 670.68,893.2 672.5,893C 680.258,892.549 687.925,891.716 695.5,890.5C 705.162,891.203 714.495,893.203 723.5,896.5 Z"/></g>
<g><path style="opacity:1" fill="#636363" d="M 706.5,894.5 C 689.57,893.051 673.237,895.051 657.5,900.5C 657.953,899.542 658.619,898.708 659.5,898C 662.521,897.151 665.521,896.317 668.5,895.5C 675.639,893.958 682.972,893.291 690.5,893.5C 696.011,893.501 701.344,893.834 706.5,894.5 Z"/></g>
<g><path style="opacity:1" fill="#3d3d3e" d="M 628.5,873.5 C 624.528,880.787 620.195,887.787 615.5,894.5C 614.5,895.167 613.5,895.833 612.5,896.5C 613.811,893.878 615.145,891.211 616.5,888.5C 621.208,883.917 625.208,878.917 628.5,873.5 Z"/></g>
<g><path style="opacity:1" fill="#3c3c3d" d="M 710.5,894.5 C 714.76,895.585 719.094,896.252 723.5,896.5C 725.629,897.203 727.629,898.203 729.5,899.5C 722.565,899.493 716.232,897.826 710.5,894.5 Z"/></g>
<g><path style="opacity:1" fill="#939393" d="M 741.5,904.5 C 747.52,905.841 752.186,909.174 755.5,914.5C 751.085,910.742 746.419,907.409 741.5,904.5 Z"/></g>
<g><path style="opacity:1" fill="#636364" d="M 656.5,900.5 C 650.325,903.502 643.992,906.169 637.5,908.5C 638.348,906.907 639.681,905.74 641.5,905C 646.342,903.039 651.342,901.539 656.5,900.5 Z"/></g>
<g><path style="opacity:1" fill="#6e6e6f" d="M 615.5,894.5 C 615.5,895.167 615.5,895.833 615.5,896.5C 609.803,905.187 604.136,913.854 598.5,922.5C 597.115,923.614 595.615,924.614 594,925.5C 593.482,928.023 592.148,930.023 590,931.5C 589.51,932.793 589.343,934.127 589.5,935.5C 587.411,937.91 585.411,940.243 583.5,942.5C 585.995,934.168 590.495,927.168 597,921.5C 601.145,912.544 606.312,904.211 612.5,896.5C 613.5,895.833 614.5,895.167 615.5,894.5 Z"/></g>
<g><path style="opacity:1" fill="#565657" d="M 580.5,880.5 C 577.957,886.589 575.123,892.589 572,898.5C 566.625,902.25 562.959,907.25 561,913.5C 558.267,916.062 555.767,918.729 553.5,921.5C 554.167,919.833 554.833,918.167 555.5,916.5C 559.35,913.846 561.85,910.18 563,905.5C 568.924,897.222 574.757,888.889 580.5,880.5 Z"/></g>
<g><path style="opacity:1" fill="#5e5e5e" d="M 634.5,910.5 C 633.415,912.587 631.749,913.92 629.5,914.5C 630.585,912.413 632.251,911.08 634.5,910.5 Z"/></g>
<g><path style="opacity:1" fill="#4a4a4a" d="M 701.5,915.5 C 694.833,915.5 688.167,915.5 681.5,915.5C 681.918,914.778 682.584,914.278 683.5,914C 686.5,913.833 689.5,913.667 692.5,913.5C 695.913,913.517 698.913,914.184 701.5,915.5 Z"/></g>
<g><path style="opacity:1" fill="#858585" d="M 677.5,916.5 C 678.568,915.566 679.901,915.232 681.5,915.5C 688.167,915.5 694.833,915.5 701.5,915.5C 707.541,915.844 713.541,916.511 719.5,917.5C 719.5,918.5 719.5,919.5 719.5,920.5C 715.024,919.721 710.691,918.554 706.5,917C 696.839,916.5 687.172,916.334 677.5,916.5 Z"/></g>
<g><path style="opacity:1" fill="#e2e2e4" d="M 677.5,916.5 C 687.172,916.334 696.839,916.5 706.5,917C 710.691,918.554 715.024,919.721 719.5,920.5C 724.135,921.815 728.135,924.148 731.5,927.5C 734.836,930.83 738.503,933.83 742.5,936.5C 743.458,936.953 744.292,937.619 745,938.5C 745.842,941.839 747.342,944.839 749.5,947.5C 750.889,953.506 752.389,959.506 754,965.5C 754.599,974.516 754.432,983.516 753.5,992.5C 752.674,997.474 752.007,1002.47 751.5,1007.5C 748.172,1014.47 744.839,1021.47 741.5,1028.5C 740.728,1029.69 739.728,1030.69 738.5,1031.5C 737.626,1033.69 735.959,1034.69 733.5,1034.5C 733.649,1035.55 733.483,1036.55 733,1037.5C 730.929,1038.1 729.762,1039.44 729.5,1041.5C 727.549,1044.78 724.882,1047.45 721.5,1049.5C 717.608,1051.06 714.275,1053.4 711.5,1056.5C 708.2,1057.28 705.2,1058.78 702.5,1061C 700.26,1061.98 697.927,1062.48 695.5,1062.5C 681.261,1064.49 666.928,1064.99 652.5,1064C 649.582,1062.85 646.582,1062.02 643.5,1061.5C 639.127,1058.7 634.46,1056.37 629.5,1054.5C 628.167,1053.5 626.833,1052.5 625.5,1051.5C 622.165,1047.12 618.831,1042.79 615.5,1038.5C 614.925,1036.59 613.925,1034.92 612.5,1033.5C 612.262,1028.68 610.929,1024.35 608.5,1020.5C 608.784,1018.59 608.451,1016.92 607.5,1015.5C 606.571,1003.49 607.904,991.825 611.5,980.5C 612.966,979.653 613.8,978.32 614,976.5C 615.624,971.666 616.791,966.666 617.5,961.5C 621.128,958.836 623.128,955.169 623.5,950.5C 628.511,944.162 634.511,938.828 641.5,934.5C 642.386,933.675 642.719,932.675 642.5,931.5C 646.786,928.782 651.453,926.616 656.5,925C 657.381,924.292 658.047,923.458 658.5,922.5C 664.962,920.762 671.295,918.762 677.5,916.5 Z"/></g>
<g><path style="opacity:1" fill="#555556" d="M 755.5,914.5 C 757.5,916.167 759.5,917.833 761.5,919.5C 762.11,920.391 762.443,921.391 762.5,922.5C 759.353,920.454 757.02,917.788 755.5,914.5 Z"/></g>
<g><path style="opacity:1" fill="#868687" d="M 677.5,916.5 C 671.295,918.762 664.962,920.762 658.5,922.5C 659.078,920.62 660.412,919.62 662.5,919.5C 667.428,918.114 672.428,917.114 677.5,916.5 Z"/></g>
<g><path style="opacity:1" fill="#b7b7b8" d="M 598.5,922.5 C 597.513,928.165 594.513,932.498 589.5,935.5C 589.343,934.127 589.51,932.793 590,931.5C 592.148,930.023 593.482,928.023 594,925.5C 595.615,924.614 597.115,923.614 598.5,922.5 Z"/></g>
<g><path style="opacity:1" fill="#7b7b7b" d="M 658.5,922.5 C 658.047,923.458 657.381,924.292 656.5,925C 651.453,926.616 646.786,928.782 642.5,931.5C 642.719,932.675 642.386,933.675 641.5,934.5C 634.511,938.828 628.511,944.162 623.5,950.5C 627.486,943.18 633.153,937.514 640.5,933.5C 641.386,932.675 641.719,931.675 641.5,930.5C 647.048,927.687 652.715,925.021 658.5,922.5 Z"/></g>
<g><path style="opacity:1" fill="#aaaaab" d="M 555.5,916.5 C 554.833,918.167 554.167,919.833 553.5,921.5C 553.155,924.198 551.822,926.198 549.5,927.5C 547.833,929.5 546.167,931.5 544.5,933.5C 546.844,928.967 549.011,924.3 551,919.5C 552.129,917.859 553.629,916.859 555.5,916.5 Z"/></g>
<g><path style="opacity:1" fill="#5a5a5b" d="M 629.5,914.5 C 623.284,919.927 617.284,925.593 611.5,931.5C 615.978,924.198 621.978,918.531 629.5,914.5 Z"/></g>
<g><path style="opacity:1" fill="#89898a" d="M 731.5,927.5 C 736.012,929.334 739.679,932.334 742.5,936.5C 738.503,933.83 734.836,930.83 731.5,927.5 Z"/></g>
<g><path style="opacity:1" fill="#757576" d="M 611.5,931.5 C 608.754,934.238 606.42,937.238 604.5,940.5C 604.979,936.025 607.312,933.025 611.5,931.5 Z"/></g>
<g><path style="opacity:1" fill="#4f4f50" d="M 549.5,927.5 C 546.336,936.674 541.336,944.674 534.5,951.5C 536.487,947.527 538.487,943.527 540.5,939.5C 542.121,937.736 543.454,935.736 544.5,933.5C 546.167,931.5 547.833,929.5 549.5,927.5 Z"/></g>
<g><path style="opacity:1" fill="#a8a6ac" d="M 274.5,933.5 C 276.245,937.2 277.245,941.2 277.5,945.5C 276.414,945.38 275.747,944.713 275.5,943.5C 274.673,940.217 274.34,936.884 274.5,933.5 Z"/></g>
<g><path style="opacity:1" fill="#3a3a3b" d="M 604.5,940.5 C 603.203,942.993 602.203,945.66 601.5,948.5C 600.675,949.386 599.675,949.719 598.5,949.5C 597.588,953.251 595.922,956.584 593.5,959.5C 595.493,952.175 599.16,945.841 604.5,940.5 Z"/></g>
<g><path style="opacity:1" fill="#868687" d="M 583.5,942.5 C 583.657,943.873 583.49,945.207 583,946.5C 579.257,950.732 575.757,955.065 572.5,959.5C 572.833,958.167 573.167,956.833 573.5,955.5C 576.861,951.145 580.195,946.811 583.5,942.5 Z"/></g>
<g><path style="opacity:1" fill="#9d9d9e" d="M 749.5,947.5 C 752.092,953.277 754.092,959.277 755.5,965.5C 755.666,972.841 755.5,980.174 755,987.5C 754.802,989.382 754.302,991.048 753.5,992.5C 754.432,983.516 754.599,974.516 754,965.5C 752.389,959.506 750.889,953.506 749.5,947.5 Z"/></g>
<g><path style="opacity:1" fill="#a8a8a9" d="M 761.5,919.5 C 763.213,920.305 764.879,921.305 766.5,922.5C 769.77,929.378 773.27,936.044 777,942.5C 782.599,963.36 782.932,984.36 778,1005.5C 777.617,1006.06 777.117,1006.39 776.5,1006.5C 780.255,991.75 781.422,976.75 780,961.5C 779.722,960.584 779.222,959.918 778.5,959.5C 776.618,945.585 771.284,933.252 762.5,922.5C 762.443,921.391 762.11,920.391 761.5,919.5 Z"/></g>
<g><path style="opacity:1" fill="#7c7980" d="M 278.5,950.5 C 279.924,952.515 280.59,954.848 280.5,957.5C 279.076,955.485 278.41,953.152 278.5,950.5 Z"/></g>
<g><path style="opacity:1" fill="#333334" d="M 534.5,951.5 C 531.155,960.357 526.322,968.357 520,975.5C 519.243,981.623 516.077,985.956 510.5,988.5C 510.557,987.391 510.89,986.391 511.5,985.5C 519.107,974.208 526.773,962.875 534.5,951.5 Z"/></g>
<g><path style="opacity:1" fill="#3c3c3c" d="M 573.5,955.5 C 573.167,956.833 572.833,958.167 572.5,959.5C 570.5,961.5 568.5,963.5 566.5,965.5C 568.062,961.608 570.395,958.275 573.5,955.5 Z"/></g>
<g><path style="opacity:1" fill="#8e8e8f" d="M 540.5,939.5 C 538.487,943.527 536.487,947.527 534.5,951.5C 526.773,962.875 519.107,974.208 511.5,985.5C 513.128,980.134 515.962,975.467 520,971.5C 526.186,961.275 532.186,950.942 538,940.5C 538.671,939.748 539.504,939.414 540.5,939.5 Z"/></g>
<g><path style="opacity:1" fill="#848485" d="M 623.5,950.5 C 623.128,955.169 621.128,958.836 617.5,961.5C 618.544,957.273 620.544,953.606 623.5,950.5 Z"/></g>
<g><path style="opacity:1" fill="#7f7f80" d="M 572.5,959.5 C 572.849,962.99 571.349,965.323 568,966.5C 565.971,970.58 563.471,974.246 560.5,977.5C 561.82,974.86 563.153,972.193 564.5,969.5C 565.6,968.395 566.267,967.062 566.5,965.5C 568.5,963.5 570.5,961.5 572.5,959.5 Z"/></g>
<g><path style="opacity:1" fill="#b2b2b3" d="M 617.5,961.5 C 616.791,966.666 615.624,971.666 614,976.5C 613.8,978.32 612.966,979.653 611.5,980.5C 611.424,976.616 612.09,972.95 613.5,969.5C 614.326,966.515 615.659,963.849 617.5,961.5 Z"/></g>
<g><path style="opacity:1" fill="#717171" d="M 755.5,965.5 C 757.743,979.843 756.41,993.843 751.5,1007.5C 752.007,1002.47 752.674,997.474 753.5,992.5C 754.302,991.048 754.802,989.382 755,987.5C 755.5,980.174 755.666,972.841 755.5,965.5 Z"/></g>
<g><path style="opacity:1" fill="#404040" d="M 564.5,969.5 C 563.153,972.193 561.82,974.86 560.5,977.5C 559.194,979.473 557.527,981.139 555.5,982.5C 557.786,977.569 560.786,973.235 564.5,969.5 Z"/></g>
<g><path style="opacity:1" fill="#828282" d="M 592.5,959.5 C 589,967.839 586.667,976.505 585.5,985.5C 585.167,985.5 584.833,985.5 584.5,985.5C 585.379,977.652 587.046,969.986 589.5,962.5C 590.141,961.007 591.141,960.007 592.5,959.5 Z"/></g>
<g><path style="opacity:1" fill="#9d9d9d" d="M 560.5,977.5 C 559.951,979.901 559.118,982.235 558,984.5C 554.584,989.005 551.084,993.339 547.5,997.5C 549.91,993.769 552.41,990.102 555,986.5C 555.49,985.207 555.657,983.873 555.5,982.5C 557.527,981.139 559.194,979.473 560.5,977.5 Z"/></g>
<g><path style="opacity:1" fill="#808081" d="M 613.5,969.5 C 612.09,972.95 611.424,976.616 611.5,980.5C 607.904,991.825 606.571,1003.49 607.5,1015.5C 606.343,1007.34 606.177,999.01 607,990.5C 609.183,985.1 610.517,979.434 611,973.5C 611.934,972.142 612.768,970.808 613.5,969.5 Z"/></g>
<g><path style="opacity:1" fill="#4e4e4f" d="M 778.5,959.5 C 779.222,959.918 779.722,960.584 780,961.5C 781.422,976.75 780.255,991.75 776.5,1006.5C 776.008,1008.82 775.008,1010.82 773.5,1012.5C 778.987,995.231 780.653,977.564 778.5,959.5 Z"/></g>
<g><path style="opacity:1" fill="#5a5a5b" d="M 510.5,988.5 C 507.474,993.236 504.474,997.903 501.5,1002.5C 502.855,996.637 505.855,991.97 510.5,988.5 Z"/></g>
<g><path style="opacity:1" fill="#3a3a3b" d="M 555.5,982.5 C 555.657,983.873 555.49,985.207 555,986.5C 552.41,990.102 549.91,993.769 547.5,997.5C 547.5,997.833 547.5,998.167 547.5,998.5C 543.353,1001.65 540.353,1005.65 538.5,1010.5C 537.222,1010.78 536.222,1011.45 535.5,1012.5C 538.393,1007.72 541.06,1002.72 543.5,997.5C 545.149,996.352 546.649,995.019 548,993.5C 550.017,989.454 552.517,985.788 555.5,982.5 Z"/></g>
<g><path style="opacity:1" fill="#ababad" d="M 584.5,985.5 C 581.903,1000.53 581.903,1015.53 584.5,1030.5C 583.59,1028.98 582.757,1027.31 582,1025.5C 581.333,1014.83 581.333,1004.17 582,993.5C 582.098,990.478 582.932,987.811 584.5,985.5 Z"/></g>
<g><path style="opacity:1" fill="#5b5b5c" d="M 584.5,985.5 C 584.833,985.5 585.167,985.5 585.5,985.5C 582.579,1001.58 582.913,1017.58 586.5,1033.5C 585.094,1033.03 584.427,1032.03 584.5,1030.5C 581.903,1015.53 581.903,1000.53 584.5,985.5 Z"/></g>
<g><path style="opacity:1" fill="#505050" d="M 501.5,1002.5 C 500.605,1006.88 498.272,1010.21 494.5,1012.5C 495.373,1008.07 497.706,1004.74 501.5,1002.5 Z"/></g>
<g><path style="opacity:1" fill="#b7b7b9" d="M 547.5,998.5 C 545.456,1003.58 542.623,1008.24 539,1012.5C 538.506,1014.13 538.34,1015.8 538.5,1017.5C 537.041,1017.43 535.708,1017.77 534.5,1018.5C 535.82,1015.86 537.153,1013.19 538.5,1010.5C 540.353,1005.65 543.353,1001.65 547.5,998.5 Z"/></g>
<g><path style="opacity:1" fill="#5c5c5c" d="M 751.5,1007.5 C 749.635,1013.57 747.468,1019.57 745,1025.5C 744.241,1027.06 743.074,1028.06 741.5,1028.5C 744.839,1021.47 748.172,1014.47 751.5,1007.5 Z"/></g>
<g><path style="opacity:1" fill="#c7c7c9" d="M 511.5,985.5 C 510.89,986.391 510.557,987.391 510.5,988.5C 505.855,991.97 502.855,996.637 501.5,1002.5C 497.706,1004.74 495.373,1008.07 494.5,1012.5C 488.909,1016.09 485.242,1021.09 483.5,1027.5C 482.761,1027.37 482.094,1027.54 481.5,1028C 480.947,1029.88 479.947,1031.38 478.5,1032.5C 478.483,1029.01 479.983,1026.34 483,1024.5C 486.74,1018.27 490.24,1011.94 493.5,1005.5C 496.645,1004.92 498.145,1002.92 498,999.5C 501.85,994.065 506.35,989.398 511.5,985.5 Z"/></g>
<g><path style="opacity:1" fill="#565656" d="M 538.5,1010.5 C 537.153,1013.19 535.82,1015.86 534.5,1018.5C 533.577,1021.26 531.744,1023.26 529,1024.5C 528.209,1025.74 527.709,1027.08 527.5,1028.5C 525.833,1029.83 524.167,1031.17 522.5,1032.5C 525.83,1027.85 528.663,1022.85 531,1017.5C 532.049,1015.38 533.549,1013.72 535.5,1012.5C 536.222,1011.45 537.222,1010.78 538.5,1010.5 Z"/></g>
<g><path style="opacity:1" fill="#767676" d="M 494.5,1012.5 C 491.982,1018.35 488.315,1023.35 483.5,1027.5C 485.242,1021.09 488.909,1016.09 494.5,1012.5 Z"/></g>
<g><path style="opacity:1" fill="#3b3b3b" d="M 608.5,1020.5 C 610.929,1024.35 612.262,1028.68 612.5,1033.5C 608.996,1030.01 607.662,1025.67 608.5,1020.5 Z"/></g>
<g><path style="opacity:1" fill="#959596" d="M 738.5,1031.5 C 736.884,1036.11 733.884,1039.45 729.5,1041.5C 729.762,1039.44 730.929,1038.1 733,1037.5C 733.483,1036.55 733.649,1035.55 733.5,1034.5C 735.959,1034.69 737.626,1033.69 738.5,1031.5 Z"/></g>
<g><path style="opacity:1" fill="#a6a6a8" d="M 527.5,1028.5 C 525.082,1034.49 521.749,1039.99 517.5,1045C 541.164,1045.5 564.831,1045.67 588.5,1045.5C 587.09,1042.05 586.424,1038.38 586.5,1034.5C 587.677,1036.68 588.677,1039.01 589.5,1041.5C 590.15,1043.44 590.483,1045.44 590.5,1047.5C 565.833,1047.5 541.167,1047.5 516.5,1047.5C 516.5,1046.17 516.5,1044.83 516.5,1043.5C 517.429,1040.59 518.762,1037.92 520.5,1035.5C 521.906,1035.03 522.573,1034.03 522.5,1032.5C 524.167,1031.17 525.833,1029.83 527.5,1028.5 Z"/></g>
<g><path style="opacity:1" fill="#565656" d="M 764.5,1032.5 C 761.395,1039.72 757.061,1046.06 751.5,1051.5C 755.597,1044.96 759.931,1038.63 764.5,1032.5 Z"/></g>
<g><path style="opacity:1" fill="#424243" d="M 615.5,1038.5 C 618.831,1042.79 622.165,1047.12 625.5,1051.5C 623.284,1050.8 621.451,1049.46 620,1047.5C 618.489,1044.48 616.989,1041.48 615.5,1038.5 Z"/></g>
<g><path style="opacity:1" fill="#626262" d="M 589.5,1041.5 C 590.993,1042.31 591.66,1043.65 591.5,1045.5C 591.48,1046.73 591.147,1047.73 590.5,1048.5C 565.498,1048.67 540.498,1048.5 515.5,1048C 514.084,1046.08 514.418,1044.58 516.5,1043.5C 516.5,1044.83 516.5,1046.17 516.5,1047.5C 541.167,1047.5 565.833,1047.5 590.5,1047.5C 590.483,1045.44 590.15,1043.44 589.5,1041.5 Z"/></g>
<g><path style="opacity:1" fill="#323232" d="M 520.5,1035.5 C 518.762,1037.92 517.429,1040.59 516.5,1043.5C 514.418,1044.58 514.084,1046.08 515.5,1048C 540.498,1048.5 565.498,1048.67 590.5,1048.5C 565.337,1049.66 540.003,1049.83 514.5,1049C 513.823,1043.5 515.823,1039 520.5,1035.5 Z"/></g>
<g><path style="opacity:1" fill="#626262" d="M 483.5,1027.5 C 480.232,1036.5 475.399,1044.5 469,1051.5C 467.749,1056.09 466.915,1060.76 466.5,1065.5C 466.167,1065.5 465.833,1065.5 465.5,1065.5C 465.335,1061.82 465.501,1058.15 466,1054.5C 467.267,1052.19 468.434,1049.85 469.5,1047.5C 471.735,1043.42 474.569,1039.76 478,1036.5C 478.49,1035.21 478.657,1033.87 478.5,1032.5C 479.947,1031.38 480.947,1029.88 481.5,1028C 482.094,1027.54 482.761,1027.37 483.5,1027.5 Z"/></g>
<g><path style="opacity:1" fill="#828284" d="M 721.5,1049.5 C 720.473,1051.19 719.139,1052.53 717.5,1053.5C 715.483,1054.53 713.483,1055.53 711.5,1056.5C 714.275,1053.4 717.608,1051.06 721.5,1049.5 Z"/></g>
<g><path style="opacity:1" fill="#4c4c4d" d="M 751.5,1051.5 C 749.877,1054.49 747.543,1056.82 744.5,1058.5C 744.511,1056.98 745.177,1055.82 746.5,1055C 748.279,1053.86 749.946,1052.69 751.5,1051.5 Z"/></g>
<g><path style="opacity:1" fill="#929293" d="M 629.5,1054.5 C 634.46,1056.37 639.127,1058.7 643.5,1061.5C 638.049,1060.69 633.382,1058.35 629.5,1054.5 Z"/></g>
<g><path style="opacity:1" fill="#434344" d="M 717.5,1053.5 C 717.063,1055.07 716.063,1056.24 714.5,1057C 709.171,1058.56 704.171,1060.89 699.5,1064C 696.793,1064.4 694.127,1064.9 691.5,1065.5C 692.448,1064.02 693.781,1063.02 695.5,1062.5C 697.927,1062.48 700.26,1061.98 702.5,1061C 705.2,1058.78 708.2,1057.28 711.5,1056.5C 713.483,1055.53 715.483,1054.53 717.5,1053.5 Z"/></g>
<g><path style="opacity:1" fill="#bbbbbc" d="M 643.5,1061.5 C 646.582,1062.02 649.582,1062.85 652.5,1064C 666.928,1064.99 681.261,1064.49 695.5,1062.5C 693.781,1063.02 692.448,1064.02 691.5,1065.5C 677.089,1067.14 662.755,1066.81 648.5,1064.5C 646.58,1063.93 644.913,1062.93 643.5,1061.5 Z"/></g>
<g><path style="opacity:1" fill="#737374" d="M 742.5,1060.5 C 740.203,1065.15 736.536,1068.15 731.5,1069.5C 734.528,1065.85 738.195,1062.85 742.5,1060.5 Z"/></g>
<g><path style="opacity:1" fill="#717172" d="M 648.5,1064.5 C 662.755,1066.81 677.089,1067.14 691.5,1065.5C 690.432,1066.43 689.099,1066.77 687.5,1066.5C 676.451,1067.77 665.451,1067.77 654.5,1066.5C 651.99,1066.95 649.99,1066.28 648.5,1064.5 Z"/></g>
<g><path style="opacity:1" fill="#383838" d="M 654.5,1066.5 C 665.451,1067.77 676.451,1067.77 687.5,1066.5C 687.082,1067.22 686.416,1067.72 685.5,1068C 680.333,1068.17 675.167,1068.33 670,1068.5C 664.454,1068.49 659.288,1067.83 654.5,1066.5 Z"/></g>
<g><path style="opacity:1" fill="#626263" d="M 731.5,1069.5 C 730.284,1071.45 728.618,1072.95 726.5,1074C 722.852,1075.49 719.185,1076.99 715.5,1078.5C 715.47,1077.5 715.97,1076.84 717,1076.5C 722.058,1074.54 726.891,1072.2 731.5,1069.5 Z"/></g>
<g><path style="opacity:1" fill="#4c4c4c" d="M 713.5,1078.5 C 711.388,1080.77 708.721,1082.1 705.5,1082.5C 707.789,1080.61 710.455,1079.28 713.5,1078.5 Z"/></g>
<g><path style="opacity:1" fill="#5e5e5e" d="M 705.5,1082.5 C 700.431,1084.66 695.098,1086.33 689.5,1087.5C 690.347,1086.03 691.68,1085.2 693.5,1085C 697.405,1083.64 701.405,1082.81 705.5,1082.5 Z"/></g>
<g><path style="opacity:1" fill="#131313" d="M 465.5,1065.5 C 465.833,1065.5 466.167,1065.5 466.5,1065.5C 466.5,1072.83 466.5,1080.17 466.5,1087.5C 530.167,1087.5 593.833,1087.5 657.5,1087.5C 593.335,1088.5 529.002,1088.83 464.5,1088.5C 464.713,1081.83 465.046,1075.16 465.5,1068.5C 465.5,1067.5 465.5,1066.5 465.5,1065.5 Z"/></g>
<g><path style="opacity:1" fill="#808082" d="M 465.5,1068.5 C 465.046,1075.16 464.713,1081.83 464.5,1088.5C 528.999,1089.67 593.665,1089.83 658.5,1089C 665.013,1088.83 671.347,1088.33 677.5,1087.5C 680.167,1087.5 682.833,1087.5 685.5,1087.5C 684.4,1088.56 683.066,1089.39 681.5,1090C 674.508,1090.5 667.508,1090.67 660.5,1090.5C 594.833,1090.5 529.167,1090.5 463.5,1090.5C 463.334,1084.82 463.501,1079.16 464,1073.5C 464.198,1071.62 464.698,1069.95 465.5,1068.5 Z"/></g>
<g><path style="opacity:1" fill="#2e2e2e" d="M 657.5,1087.5 C 664.167,1087.5 670.833,1087.5 677.5,1087.5C 671.347,1088.33 665.013,1088.83 658.5,1089C 593.665,1089.83 528.999,1089.67 464.5,1088.5C 529.002,1088.83 593.335,1088.5 657.5,1087.5 Z"/></g>
<g><path style="opacity:1" fill="#d2d2d4" d="M 469.5,1047.5 C 468.434,1049.85 467.267,1052.19 466,1054.5C 465.501,1058.15 465.335,1061.82 465.5,1065.5C 465.5,1066.5 465.5,1067.5 465.5,1068.5C 464.698,1069.95 464.198,1071.62 464,1073.5C 463.501,1079.16 463.334,1084.82 463.5,1090.5C 529.167,1090.5 594.833,1090.5 660.5,1090.5C 628.007,1091.83 595.174,1092.5 562,1092.5C 529.167,1092.33 496.333,1092.17 463.5,1092C 462.852,1088.58 462.518,1085.08 462.5,1081.5C 462.983,1071.83 463.483,1062.17 464,1052.5C 465.724,1050.6 467.557,1048.94 469.5,1047.5 Z"/></g>
<g><path style="opacity:1" fill="#858389" d="M 477.5,1166.5 C 480.716,1166.35 483.383,1167.35 485.5,1169.5C 482.603,1168.87 479.936,1167.87 477.5,1166.5 Z"/></g>
<g><path style="opacity:1" fill="#5e5b62" d="M 609.5,1173.5 C 607.162,1175.04 604.495,1175.71 601.5,1175.5C 603.905,1174.23 606.572,1173.57 609.5,1173.5 Z"/></g>
<g><path style="opacity:1" fill="#706e74" d="M 445.5,1183.5 C 447.967,1183.75 449.967,1184.75 451.5,1186.5C 449.033,1186.25 447.033,1185.25 445.5,1183.5 Z"/></g>
<g><path style="opacity:1" fill="#88858c" d="M 661.5,1187.5 C 659.967,1189.25 657.967,1190.25 655.5,1190.5C 657.033,1188.75 659.033,1187.75 661.5,1187.5 Z"/></g>
<g><path style="opacity:1" fill="#a09ea4" d="M 473.5,1194.5 C 480.807,1197.27 488.14,1199.6 495.5,1201.5C 490.16,1200.78 484.827,1199.94 479.5,1199C 477.369,1197.53 475.369,1196.03 473.5,1194.5 Z"/></g>
<g><path style="opacity:1" fill="#8c8990" d="M 623.5,1199.5 C 623.389,1200.12 623.056,1200.62 622.5,1201C 618.509,1201.64 614.509,1202.14 610.5,1202.5C 614.575,1200.88 618.908,1199.88 623.5,1199.5 Z"/></g>
</svg>
